<?xml version="1.0" encoding="UTF-8"?>
<svg width="180px" height="40px" viewBox="0 0 180 40" version="1.1" xmlns="http://www.w3.org/2000/svg" xmlns:xlink="http://www.w3.org/1999/xlink">
  <g stroke="none" stroke-width="1" fill="none" fill-rule="evenodd">
    <g transform="translate(164.500000, 4.500000)" fill="#222222">
      <g transform="translate(5.516355, 5.516355) rotate(-315.000000) translate(-5.516355, -5.516355) translate(-1.162217, -1.162217)">
        <rect x="5.56547619" y="0" width="2.22619048" height="13.3571429" rx="1.11309524"></rect>
        <rect x="0" y="5.56547619" width="13.3571429" height="2.22619048" rx="1.11309524"></rect>
      </g>
    </g>
    <g transform="translate(142.000000, 4.000000)">
      <rect stroke="#222222" x="0.5" y="0.5" width="15" height="11"></rect>
      <rect fill="#222222" x="1" y="1" width="14" height="3"></rect>
    </g>
    <g transform="translate(122.000000, 4.000000)">
      <rect stroke="#222222" x="0.5" y="0.5" width="15" height="11"></rect>
      <rect fill="#222222" x="8" y="1" width="7" height="10"></rect>
    </g>
    <g transform="translate(102.000000, 4.000000)">
      <rect stroke="#222222" x="0.5" y="0.5" width="15" height="11"></rect>
      <rect fill="#222222" transform="translate(4.500000, 6.000000) scale(-1, 1) translate(-4.500000, -6.000000) " x="1" y="1" width="7" height="10"></rect>
    </g>
    <g transform="translate(83.000000, 14.000000)" fill="#222222">
      <rect x="0" y="0" width="14" height="2"></rect>
    </g>
    <g transform="translate(62.000000, 22.000000)" fill="#FFB12A">
      <polygon points="8.00151426 5.68e-14 5.52935671 5.01031065 0 5.81385103 4.00075713 9.71293935 3.05719916 15.2200003 8.00151426 12.6203108 12.9467212 15.2200003 12.0031632 9.71293935 16.0039204 5.81385103 10.4745636 5.01031065 8.00240609 5.68e-14"></polygon>
    </g>
    <g transform="translate(62.000000, 2.000000)" fill="#222222">
      <polygon points="8.00151426 5.68e-14 5.52935671 5.01031065 0 5.81385103 4.00075713 9.71293935 3.05719916 15.2200003 8.00151426 12.6203108 12.9467212 15.2200003 12.0031632 9.71293935 16.0039204 5.81385103 10.4745636 5.01031065 8.00240609 5.68e-14"></polygon>
    </g>
    <g transform="translate(43.000000, 3.000000)" fill="#222222">
      <path d="M2.25,5.44444444 L12.75,5.44444444 L12.75,14 L2.25,14 L2.25,5.44444444 Z M5.25,9.33333333 L5.25,14 L9.75,14 L9.75,9.33333333 L5.25,9.33333333 Z"></path>
      <polygon points="7.5 0 15 7 0 7"></polygon>
    </g>
    <g transform="translate(20.000000, 3.000000)" fill="#222222">
      <path
        d="M4.42362199,9.70832735 L4.42362199,3.25007245 C4.42362199,2.59960868 3.89631692,2.07230362 3.24585315,2.07230362 L3.24585315,2.07230362 L3.24585315,2.07230362 C2.59538938,2.07230362 2.06808432,2.59960868 2.06808432,3.25007245 L2.06808432,10.8834997 C2.06808432,11.4427444 2.45786426,11.9109511 2.98057686,12.0312726 C3.06920102,12.052579 3.16172664,12.063865 3.25688824,12.063865 L10.8903155,12.063865 C11.5407792,12.063865 12.0680843,11.5365599 12.0680843,10.8860962 C12.0680843,10.2356324 11.5407792,9.70832735 10.8903155,9.70832735 L4.42362199,9.70832735 Z"
        transform="translate(7.068084, 7.068084) rotate(-135.000000) translate(-7.068084, -7.068084) "></path>
    </g>
    <g transform="translate(13.000000, 10.000000) scale(-1, 1) translate(-13.000000, -10.000000) translate(6.000000, 3.000000)" fill="#222222">
      <path
        d="M4.42362199,9.70832735 L4.42362199,3.25007245 C4.42362199,2.59960868 3.89631692,2.07230362 3.24585315,2.07230362 L3.24585315,2.07230362 L3.24585315,2.07230362 C2.59538938,2.07230362 2.06808432,2.59960868 2.06808432,3.25007245 L2.06808432,10.8834997 C2.06808432,11.4427444 2.45786426,11.9109511 2.98057686,12.0312726 C3.06920102,12.052579 3.16172664,12.063865 3.25688824,12.063865 L10.8903155,12.063865 C11.5407792,12.063865 12.0680843,11.5365599 12.0680843,10.8860962 C12.0680843,10.2356324 11.5407792,9.70832735 10.8903155,9.70832735 L4.42362199,9.70832735 Z"
        transform="translate(7.068084, 7.068084) rotate(-135.000000) translate(-7.068084, -7.068084) "></path>
    </g>
  </g>
</svg>
